<?xml version="1.0" standalone="yes"?>

<svg version="1.1" viewBox="0.0 0.0 368.498687664042 218.11023622047244" fill="none" stroke="none" stroke-linecap="square" stroke-miterlimit="10" xmlns="http://www.w3.org/2000/svg" xmlns:xlink="http://www.w3.org/1999/xlink"><clipPath id="p.0"><path d="m0 0l368.4987 0l0 218.11023l-368.4987 0l0 -218.11023z" clip-rule="nonzero"></path></clipPath><g clip-path="url(#p.0)"><path fill="#000000" fill-opacity="0.0" d="m0 0l368.4987 0l0 218.11023l-368.4987 0z" fill-rule="nonzero"></path><path fill="#cfe2f3" d="m67.87664 9.254748l0 0c0 -4.2850037 3.4736786 -7.758685 7.7586823 -7.758685l214.97083 0c2.0577393 0 4.031189 0.8174305 5.4862366 2.2724664c1.4550171 1.4550357 2.272461 3.4284878 2.272461 5.486219l0 31.03381c0 4.2850037 -3.4736938 7.758686 -7.7586975 7.758686l-214.97083 0l0 0c-4.2850037 0 -7.7586823 -3.4736824 -7.7586823 -7.758686z" fill-rule="nonzero"></path><path stroke="#000000" stroke-width="1.0" stroke-linejoin="round" stroke-linecap="butt" d="m67.87664 9.254748l0 0c0 -4.2850037 3.4736786 -7.758685 7.7586823 -7.758685l214.97083 0c2.0577393 0 4.031189 0.8174305 5.4862366 2.2724664c1.4550171 1.4550357 2.272461 3.4284878 2.272461 5.486219l0 31.03381c0 4.2850037 -3.4736938 7.758686 -7.7586975 7.758686l-214.97083 0l0 0c-4.2850037 0 -7.7586823 -3.4736824 -7.7586823 -7.758686z" fill-rule="nonzero"></path><path fill="#000000" d="m107.984116 26.363527l0 -1.609375l5.765625 0l0 5.046875q-1.328125 1.0625 -2.75 1.59375q-1.40625 0.53125 -2.890625 0.53125q-2.0 0 -3.640625 -0.859375q-1.625 -0.859375 -2.46875 -2.484375q-0.828125 -1.625 -0.828125 -3.625q0 -1.984375 0.828125 -3.703125q0.828125 -1.71875 2.390625 -2.546875q1.5625 -0.84375 3.59375 -0.84375q1.46875 0 2.65625 0.484375q1.203125 0.46875 1.875 1.328125q0.671875 0.84375 1.03125 2.21875l-1.625 0.4375q-0.3125 -1.03125 -0.765625 -1.625q-0.453125 -0.59375 -1.296875 -0.953125q-0.84375 -0.359375 -1.875 -0.359375q-1.234375 0 -2.140625 0.375q-0.890625 0.375 -1.453125 1.0q-0.546875 0.609375 -0.84375 1.34375q-0.53125 1.25 -0.53125 2.734375q0 1.8125 0.625 3.046875q0.640625 1.21875 1.828125 1.8125q1.203125 0.59375 2.546875 0.59375q1.171875 0 2.28125 -0.453125q1.109375 -0.453125 1.6875 -0.953125l0 -2.53125l-4.0 0zm17.855179 0.5625l1.796875 0.453125q-0.5625 2.21875 -2.03125 3.390625q-1.46875 1.15625 -3.59375 1.15625q-2.203125 0 -3.578125 -0.890625q-1.375 -0.90625 -2.09375 -2.59375q-0.71875 -1.703125 -0.71875 -3.65625q0 -2.125 0.796875 -3.703125q0.8125 -1.578125 2.3125 -2.390625q1.5 -0.828125 3.296875 -0.828125q2.046875 0 3.4375 1.046875q1.390625 1.03125 1.9375 2.90625l-1.765625 0.421875q-0.46875 -1.484375 -1.375 -2.15625q-0.90625 -0.6875 -2.265625 -0.6875q-1.5625 0 -2.625 0.75q-1.046875 0.75 -1.484375 2.03125q-0.421875 1.265625 -0.421875 2.609375q0 1.734375 0.5 3.03125q0.515625 1.28125 1.578125 1.921875q1.078125 0.640625 2.3125 0.640625q1.515625 0 2.5625 -0.859375q1.046875 -0.875 1.421875 -2.59375zm3.7698212 4.765625l0 -13.59375l5.125 0q1.359375 0 2.078125 0.125q1.0 0.171875 1.671875 0.640625q0.671875 0.46875 1.078125 1.3125q0.421875 0.84375 0.421875 1.84375q0 1.734375 -1.109375 2.9375q-1.09375 1.203125 -3.984375 1.203125l-3.484375 0l0 5.53125l-1.796875 0zm1.796875 -7.140625l3.515625 0q1.75 0 2.46875 -0.640625q0.734375 -0.65625 0.734375 -1.828125q0 -0.859375 -0.4375 -1.46875q-0.421875 -0.609375 -1.125 -0.796875q-0.453125 -0.125 -1.671875 -0.125l-3.484375 0l0 4.859375zm15.751877 7.140625l0 -13.59375l1.796875 0l0 11.984375l6.703125 0l0 1.609375l-8.5 0zm9.610092 -4.921875q0 -2.734375 1.53125 -4.0625q1.265625 -1.09375 3.09375 -1.09375q2.03125 0 3.3125 1.34375q1.296875 1.328125 1.296875 3.671875q0 1.90625 -0.578125 3.0q-0.5625 1.078125 -1.65625 1.6875q-1.078125 0.59375 -2.375 0.59375q-2.0625 0 -3.34375 -1.328125q-1.28125 -1.328125 -1.28125 -3.8125zm1.71875 0q0 1.890625 0.828125 2.828125q0.828125 0.9375 2.078125 0.9375q1.25 0 2.0625 -0.9375q0.828125 -0.953125 0.828125 -2.890625q0 -1.828125 -0.828125 -2.765625q-0.828125 -0.9375 -2.0625 -0.9375q-1.25 0 -2.078125 0.9375q-0.828125 0.9375 -0.828125 2.828125zm15.719467 3.703125q-0.9375 0.796875 -1.796875 1.125q-0.859375 0.3125 -1.84375 0.3125q-1.609375 0 -2.484375 -0.78125q-0.875 -0.796875 -0.875 -2.03125q0 -0.734375 0.328125 -1.328125q0.328125 -0.59375 0.859375 -0.953125q0.53125 -0.359375 1.203125 -0.546875q0.5 -0.140625 1.484375 -0.25q2.03125 -0.25 2.984375 -0.578125q0 -0.34375 0 -0.4375q0 -1.015625 -0.46875 -1.4375q-0.640625 -0.5625 -1.90625 -0.5625q-1.171875 0 -1.734375 0.40625q-0.5625 0.40625 -0.828125 1.46875l-1.640625 -0.234375q0.234375 -1.046875 0.734375 -1.6875q0.515625 -0.640625 1.46875 -0.984375q0.96875 -0.359375 2.25 -0.359375q1.265625 0 2.046875 0.296875q0.78125 0.296875 1.15625 0.75q0.375 0.453125 0.515625 1.140625q0.09375 0.421875 0.09375 1.53125l0 2.234375q0 2.328125 0.09375 2.953125q0.109375 0.609375 0.4375 1.171875l-1.75 0q-0.265625 -0.515625 -0.328125 -1.21875zm-0.140625 -3.71875q-0.90625 0.359375 -2.734375 0.625q-1.03125 0.140625 -1.453125 0.328125q-0.421875 0.1875 -0.65625 0.546875q-0.234375 0.359375 -0.234375 0.796875q0 0.671875 0.5 1.125q0.515625 0.4375 1.484375 0.4375q0.96875 0 1.71875 -0.421875q0.75 -0.4375 1.109375 -1.15625q0.265625 -0.578125 0.265625 -1.671875l0 -0.609375zm10.469467 4.9375l0 -1.25q-0.9375 1.46875 -2.75 1.46875q-1.171875 0 -2.171875 -0.640625q-0.984375 -0.65625 -1.53125 -1.8125q-0.53125 -1.171875 -0.53125 -2.6875q0 -1.46875 0.484375 -2.671875q0.5 -1.203125 1.46875 -1.84375q0.984375 -0.640625 2.203125 -0.640625q0.890625 0 1.578125 0.375q0.703125 0.375 1.140625 0.984375l0 -4.875l1.65625 0l0 13.59375l-1.546875 0zm-5.28125 -4.921875q0 1.890625 0.796875 2.828125q0.8125 0.9375 1.890625 0.9375q1.09375 0 1.859375 -0.890625q0.765625 -0.890625 0.765625 -2.734375q0 -2.015625 -0.78125 -2.953125q-0.78125 -0.953125 -1.921875 -0.953125q-1.109375 0 -1.859375 0.90625q-0.75 0.90625 -0.75 2.859375zm14.590271 4.921875l0 -13.59375l5.109375 0q1.546875 0 2.484375 0.40625q0.953125 0.40625 1.484375 1.265625q0.53125 0.859375 0.53125 1.796875q0 0.875 -0.46875 1.65625q-0.46875 0.765625 -1.4375 1.234375q1.234375 0.359375 1.890625 1.234375q0.671875 0.875 0.671875 2.0625q0 0.953125 -0.40625 1.78125q-0.390625 0.8125 -0.984375 1.265625q-0.59375 0.4375 -1.5 0.671875q-0.890625 0.21875 -2.1875 0.21875l-5.1875 0zm1.796875 -7.890625l2.9375 0q1.203125 0 1.71875 -0.15625q0.6875 -0.203125 1.03125 -0.671875q0.359375 -0.46875 0.359375 -1.1875q0 -0.671875 -0.328125 -1.1875q-0.328125 -0.515625 -0.9375 -0.703125q-0.59375 -0.203125 -2.0625 -0.203125l-2.71875 0l0 4.109375zm0 6.28125l3.390625 0q0.875 0 1.21875 -0.0625q0.625 -0.109375 1.046875 -0.359375q0.421875 -0.265625 0.6875 -0.765625q0.265625 -0.5 0.265625 -1.140625q0 -0.765625 -0.390625 -1.328125q-0.390625 -0.5625 -1.078125 -0.78125q-0.6875 -0.234375 -1.984375 -0.234375l-3.15625 0l0 4.671875zm16.943573 0.390625q-0.9375 0.796875 -1.796875 1.125q-0.859375 0.3125 -1.84375 0.3125q-1.609375 0 -2.484375 -0.78125q-0.875 -0.796875 -0.875 -2.03125q0 -0.734375 0.328125 -1.328125q0.328125 -0.59375 0.859375 -0.953125q0.53125 -0.359375 1.203125 -0.546875q0.5 -0.140625 1.484375 -0.25q2.03125 -0.25 2.984375 -0.578125q0 -0.34375 0 -0.4375q0 -1.015625 -0.46875 -1.4375q-0.640625 -0.5625 -1.90625 -0.5625q-1.171875 0 -1.734375 0.40625q-0.5625 0.40625 -0.828125 1.46875l-1.640625 -0.234375q0.234375 -1.046875 0.734375 -1.6875q0.515625 -0.640625 1.46875 -0.984375q0.96875 -0.359375 2.25 -0.359375q1.265625 0 2.046875 0.296875q0.78125 0.296875 1.15625 0.75q0.375 0.453125 0.515625 1.140625q0.09375 0.421875 0.09375 1.53125l0 2.234375q0 2.328125 0.09375 2.953125q0.109375 0.609375 0.4375 1.171875l-1.75 0q-0.265625 -0.515625 -0.328125 -1.21875zm-0.140625 -3.71875q-0.90625 0.359375 -2.734375 0.625q-1.03125 0.140625 -1.453125 0.328125q-0.421875 0.1875 -0.65625 0.546875q-0.234375 0.359375 -0.234375 0.796875q0 0.671875 0.5 1.125q0.515625 0.4375 1.484375 0.4375q0.96875 0 1.71875 -0.421875q0.75 -0.4375 1.109375 -1.15625q0.265625 -0.578125 0.265625 -1.671875l0 -0.609375zm4.047592 4.9375l0 -13.59375l1.671875 0l0 13.59375l-1.671875 0zm10.613571 -1.21875q-0.9375 0.796875 -1.796875 1.125q-0.859375 0.3125 -1.84375 0.3125q-1.609375 0 -2.484375 -0.78125q-0.875 -0.796875 -0.875 -2.03125q0 -0.734375 0.328125 -1.328125q0.328125 -0.59375 0.859375 -0.953125q0.53125 -0.359375 1.203125 -0.546875q0.5 -0.140625 1.484375 -0.25q2.03125 -0.25 2.984375 -0.578125q0 -0.34375 0 -0.4375q0 -1.015625 -0.46875 -1.4375q-0.640625 -0.5625 -1.90625 -0.5625q-1.171875 0 -1.734375 0.40625q-0.5625 0.40625 -0.828125 1.46875l-1.640625 -0.234375q0.234375 -1.046875 0.734375 -1.6875q0.515625 -0.640625 1.46875 -0.984375q0.96875 -0.359375 2.25 -0.359375q1.265625 0 2.046875 0.296875q0.78125 0.296875 1.15625 0.75q0.375 0.453125 0.515625 1.140625q0.09375 0.421875 0.09375 1.53125l0 2.234375q0 2.328125 0.09375 2.953125q0.109375 0.609375 0.4375 1.171875l-1.75 0q-0.265625 -0.515625 -0.328125 -1.21875zm-0.140625 -3.71875q-0.90625 0.359375 -2.734375 0.625q-1.03125 0.140625 -1.453125 0.328125q-0.421875 0.1875 -0.65625 0.546875q-0.234375 0.359375 -0.234375 0.796875q0 0.671875 0.5 1.125q0.515625 0.4375 1.484375 0.4375q0.96875 0 1.71875 -0.421875q0.75 -0.4375 1.109375 -1.15625q0.265625 -0.578125 0.265625 -1.671875l0 -0.609375zm4.078842 4.9375l0 -9.859375l1.5 0l0 1.40625q1.09375 -1.625 3.140625 -1.625q0.890625 0 1.640625 0.328125q0.75 0.3125 1.109375 0.84375q0.375 0.515625 0.53125 1.21875q0.09375 0.46875 0.09375 1.625l0 6.0625l-1.671875 0l0 -6.0q0 -1.015625 -0.203125 -1.515625q-0.1875 -0.515625 -0.6875 -0.8125q-0.5 -0.296875 -1.171875 -0.296875q-1.0625 0 -1.84375 0.671875q-0.765625 0.671875 -0.765625 2.578125l0 5.375l-1.671875 0zm16.813217 -3.609375l1.640625 0.21875q-0.265625 1.6875 -1.375 2.65625q-1.109375 0.953125 -2.734375 0.953125q-2.015625 0 -3.25 -1.3125q-1.21875 -1.328125 -1.21875 -3.796875q0 -1.59375 0.515625 -2.78125q0.53125 -1.203125 1.609375 -1.796875q1.09375 -0.609375 2.359375 -0.609375q1.609375 0 2.625 0.8125q1.015625 0.8125 1.3125 2.3125l-1.625 0.25q-0.234375 -1.0 -0.828125 -1.5q-0.59375 -0.5 -1.421875 -0.5q-1.265625 0 -2.0625 0.90625q-0.78125 0.90625 -0.78125 2.859375q0 1.984375 0.765625 2.890625q0.765625 0.890625 1.984375 0.890625q0.984375 0 1.640625 -0.59375q0.65625 -0.609375 0.84375 -1.859375zm9.64064 0.4375l1.71875 0.21875q-0.40625 1.5 -1.515625 2.34375q-1.09375 0.828125 -2.8125153 0.828125q-2.15625 0 -3.421875 -1.328125q-1.265625 -1.328125 -1.265625 -3.734375q0 -2.484375 1.265625 -3.859375q1.28125 -1.375 3.328125 -1.375q1.9843903 0 3.2343903 1.34375q1.25 1.34375 1.25 3.796875q0 0.140625 -0.015625 0.4375l-7.3437653 0q0.09375 1.625 0.921875 2.484375q0.828125 0.859375 2.0625 0.859375q0.90625 0 1.5468903 -0.46875q0.65625 -0.484375 1.046875 -1.546875zm-5.4843903 -2.703125l5.5000153 0q-0.109375 -1.234375 -0.625 -1.859375q-0.796875 -0.96875 -2.0781403 -0.96875q-1.140625 0 -1.9375 0.78125q-0.78125 0.765625 -0.859375 2.046875zm9.094467 5.875l0 -9.859375l1.5 0l0 1.5q0.578125 -1.046875 1.0625 -1.375q0.484375 -0.34375 1.078125 -0.34375q0.84375 0 1.71875 0.546875l-0.578125 1.546875q-0.609375 -0.359375 -1.234375 -0.359375q-0.546875 0 -0.984375 0.328125q-0.421875 0.328125 -0.609375 0.90625q-0.28125 0.890625 -0.28125 1.953125l0 5.15625l-1.671875 0z" fill-rule="nonzero"></path><path fill="#ffffff" d="m67.87664 67.698425l0 0c0 -7.1523056 5.798088 -12.950394 12.950394 -12.950394l204.5874 0c3.4346619 0 6.7286377 1.3644104 9.157318 3.7930832c2.4286804 2.428669 3.7930908 5.7226486 3.7930908 9.1573105l0 51.800003c0 7.1523056 -5.7980957 12.950394 -12.950409 12.950394l-204.5874 0c-7.1523056 0 -12.950394 -5.798088 -12.950394 -12.950394z" fill-rule="nonzero"></path><path stroke="#000000" stroke-width="1.0" stroke-linejoin="round" stroke-linecap="butt" d="m67.87664 67.698425l0 0c0 -7.1523056 5.798088 -12.950394 12.950394 -12.950394l204.5874 0c3.4346619 0 6.7286377 1.3644104 9.157318 3.7930832c2.4286804 2.428669 3.7930908 5.7226486 3.7930908 9.1573105l0 51.800003c0 7.1523056 -5.7980957 12.950394 -12.950409 12.950394l-204.5874 0c-7.1523056 0 -12.950394 -5.798088 -12.950394 -12.950394z" fill-rule="nonzero"></path><path fill="#000000" d="m106.42287 115.575775l-3.609375 -13.59375l1.84375 0l2.0625 8.90625q0.34375 1.40625 0.578125 2.78125q0.515625 -2.171875 0.609375 -2.515625l2.59375 -9.171875l2.171875 0l1.953125 6.875q0.734375 2.5625 1.046875 4.8125q0.265625 -1.28125 0.6875 -2.953125l2.125 -8.734375l1.8125 0l-3.734375 13.59375l-1.734375 0l-2.859375 -10.359375q-0.359375 -1.296875 -0.421875 -1.59375q-0.21875 0.9375 -0.40625 1.59375l-2.890625 10.359375l-1.828125 0zm21.764908 -3.171875l1.71875 0.21875q-0.40625 1.5 -1.515625 2.34375q-1.09375 0.828125 -2.8125 0.828125q-2.15625 0 -3.421875 -1.328125q-1.265625 -1.328125 -1.265625 -3.734375q0 -2.484375 1.265625 -3.859375q1.28125 -1.375 3.328125 -1.375q1.984375 0 3.234375 1.34375q1.25 1.34375 1.25 3.796875q0 0.140625 -0.015625 0.4375l-7.34375 0q0.09375 1.625 0.921875 2.484375q0.828125 0.859375 2.0625 0.859375q0.90625 0 1.546875 -0.46875q0.65625 -0.484375 1.046875 -1.546875zm-5.484375 -2.703125l5.5 0q-0.109375 -1.234375 -0.625 -1.859375q-0.796875 -0.96875 -2.078125 -0.96875q-1.140625 0 -1.9375 0.78125q-0.78125 0.765625 -0.859375 2.046875zm10.656967 5.875l-1.546875 0l0 -13.59375l1.65625 0l0 4.84375q1.0625 -1.328125 2.703125 -1.328125q0.90625 0 1.71875 0.375q0.8125 0.359375 1.328125 1.03125q0.53125 0.65625 0.828125 1.59375q0.296875 0.9375 0.296875 2.0q0 2.53125 -1.25 3.921875q-1.25 1.375 -3.0 1.375q-1.75 0 -2.734375 -1.453125l0 1.234375zm-0.015625 -5.0q0 1.765625 0.46875 2.5625q0.796875 1.28125 2.140625 1.28125q1.09375 0 1.890625 -0.9375q0.796875 -0.953125 0.796875 -2.84375q0 -1.921875 -0.765625 -2.84375q-0.765625 -0.921875 -1.84375 -0.921875q-1.09375 0 -1.890625 0.953125q-0.796875 0.953125 -0.796875 2.75zm7.594467 5.234375l3.9375 -14.0625l1.34375 0l-3.9375 14.0625l-1.34375 0zm5.152054 -0.234375l5.234375 -13.59375l1.9375 0l5.5625 13.59375l-2.046875 0l-1.59375 -4.125l-5.6875 0l-1.484375 4.125l-1.921875 0zm3.921875 -5.578125l4.609375 0l-1.40625 -3.78125q-0.65625 -1.703125 -0.96875 -2.8125q-0.265625 1.3125 -0.734375 2.59375l-1.5 4.0zm10.021698 5.578125l0 -13.59375l5.125 0q1.359375 0 2.078125 0.125q1.0 0.171875 1.671875 0.640625q0.671875 0.46875 1.078125 1.3125q0.421875 0.84375 0.421875 1.84375q0 1.734375 -1.109375 2.9375q-1.09375 1.203125 -3.984375 1.203125l-3.484375 0l0 5.53125l-1.796875 0zm1.796875 -7.140625l3.515625 0q1.75 0 2.46875 -0.640625q0.734375 -0.65625 0.734375 -1.828125q0 -0.859375 -0.4375 -1.46875q-0.421875 -0.609375 -1.125 -0.796875q-0.453125 -0.125 -1.671875 -0.125l-3.484375 0l0 4.859375zm10.943573 7.140625l0 -13.59375l1.8125 0l0 13.59375l-1.8125 0zm18.038483 -9.859375l0 9.859375l-1.484375 0l0 -1.171875q-0.484375 0.75 -0.953125 1.015625q-0.65625 0.390625 -1.515625 0.390625q-0.765625 0 -1.359375 -0.3125q-0.453125 -0.234375 -0.984375 -0.921875l0 4.78125l-1.65625 0l0 -13.640625l1.65625 0l0 4.1875q0 2.265625 0.234375 2.9375q0.25 0.671875 0.78125 1.0625q0.546875 0.390625 1.25 0.390625q0.75 0 1.328125 -0.40625q0.578125 -0.40625 0.8125 -1.046875q0.25 -0.65625 0.25 -2.921875l0 -4.203125l1.640625 0zm2.1710815 5.484375l1.6875 -0.140625q0.125 1.015625 0.5625 1.671875q0.4375 0.65625 1.359375 1.0625q0.9375 0.40625 2.09375 0.40625q1.03125 0 1.8125 -0.3125q0.796875 -0.3125 1.1875 -0.84375q0.390625 -0.53125 0.390625 -1.15625q0 -0.640625 -0.375 -1.109375q-0.375 -0.484375 -1.234375 -0.8125q-0.546875 -0.21875 -2.421875 -0.65625q-1.875 -0.453125 -2.625 -0.859375q-0.96875 -0.515625 -1.453125 -1.265625q-0.46875 -0.75 -0.46875 -1.6875q0 -1.03125 0.578125 -1.921875q0.59375 -0.90625 1.703125 -1.359375q1.125 -0.46875 2.5 -0.46875q1.515625 0 2.671875 0.484375q1.15625 0.484375 1.765625 1.4375q0.625 0.9375 0.671875 2.140625l-1.71875 0.125q-0.140625 -1.28125 -0.953125 -1.9375q-0.796875 -0.671875 -2.359375 -0.671875q-1.625 0 -2.375 0.609375q-0.75 0.59375 -0.75 1.4375q0 0.734375 0.53125 1.203125q0.515625 0.46875 2.703125 0.96875q2.203125 0.5 3.015625 0.875q1.1875 0.546875 1.75 1.390625q0.578125 0.828125 0.578125 1.921875q0 1.09375 -0.625 2.0625q-0.625 0.953125 -1.796875 1.484375q-1.15625 0.53125 -2.609375 0.53125q-1.84375 0 -3.09375 -0.53125q-1.25 -0.546875 -1.96875 -1.625q-0.703125 -1.078125 -0.734375 -2.453125zm19.584198 1.203125l1.71875 0.21875q-0.40625 1.5 -1.515625 2.34375q-1.09375 0.828125 -2.8125 0.828125q-2.15625 0 -3.421875 -1.328125q-1.265625 -1.328125 -1.265625 -3.734375q0 -2.484375 1.265625 -3.859375q1.28125 -1.375 3.328125 -1.375q1.984375 0 3.234375 1.34375q1.25 1.34375 1.25 3.796875q0 0.140625 -0.015625 0.4375l-7.34375 0q0.09375 1.625 0.921875 2.484375q0.828125 0.859375 2.0625 0.859375q0.90625 0 1.546875 -0.46875q0.65625 -0.484375 1.046875 -1.546875zm-5.484375 -2.703125l5.5 0q-0.109375 -1.234375 -0.625 -1.859375q-0.796875 -0.96875 -2.078125 -0.96875q-1.140625 0 -1.9375 0.78125q-0.78125 0.765625 -0.859375 2.046875zm9.094467 5.875l0 -9.859375l1.5 0l0 1.5q0.578125 -1.046875 1.0625 -1.375q0.484375 -0.34375 1.078125 -0.34375q0.84375 0 1.71875 0.546875l-0.578125 1.546875q-0.609375 -0.359375 -1.234375 -0.359375q-0.546875 0 -0.984375 0.328125q-0.421875 0.328125 -0.609375 0.90625q-0.28125 0.890625 -0.28125 1.953125l0 5.15625l-1.671875 0zm8.962677 0l-3.75 -9.859375l1.765625 0l2.125 5.90625q0.34375 0.953125 0.625 1.984375q0.21875 -0.78125 0.625 -1.875l2.1875 -6.015625l1.71875 0l-3.734375 9.859375l-1.5625 0zm6.609375 -11.6875l0 -1.90625l1.671875 0l0 1.90625l-1.671875 0zm0 11.6875l0 -9.859375l1.671875 0l0 9.859375l-1.671875 0zm10.566696 -3.609375l1.640625 0.21875q-0.265625 1.6875 -1.375 2.65625q-1.109375 0.953125 -2.734375 0.953125q-2.015625 0 -3.25 -1.3125q-1.21875 -1.328125 -1.21875 -3.796875q0 -1.59375 0.515625 -2.78125q0.53125 -1.203125 1.609375 -1.796875q1.09375 -0.609375 2.359375 -0.609375q1.609375 0 2.625 0.8125q1.015625 0.8125 1.3125 2.3125l-1.625 0.25q-0.234375 -1.0 -0.828125 -1.5q-0.59375 -0.5 -1.421875 -0.5q-1.265625 0 -2.0625 0.90625q-0.78125 0.90625 -0.78125 2.859375q0 1.984375 0.765625 2.890625q0.765625 0.890625 1.984375 0.890625q0.984375 0 1.640625 -0.59375q0.65625 -0.609375 0.84375 -1.859375zm9.640625 0.4375l1.71875 0.21875q-0.40625 1.5 -1.515625 2.34375q-1.09375 0.828125 -2.8125 0.828125q-2.15625 0 -3.421875 -1.328125q-1.265625 -1.328125 -1.265625 -3.734375q0 -2.484375 1.265625 -3.859375q1.28125 -1.375 3.328125 -1.375q1.984375 0 3.234375 1.34375q1.25 1.34375 1.25 3.796875q0 0.140625 -0.015625 0.4375l-7.34375 0q0.09375 1.625 0.921875 2.484375q0.828125 0.859375 2.0625 0.859375q0.90625 0 1.546875 -0.46875q0.65625 -0.484375 1.046875 -1.546875zm-5.484375 -2.703125l5.5 0q-0.109375 -1.234375 -0.625 -1.859375q-0.796875 -0.96875 -2.078125 -0.96875q-1.140625 0 -1.9375 0.78125q-0.78125 0.765625 -0.859375 2.046875zm8.438217 2.9375l1.65625 -0.265625q0.140625 1.0 0.765625 1.53125q0.640625 0.515625 1.78125 0.515625q1.15625 0 1.703125 -0.46875q0.5625 -0.46875 0.5625 -1.09375q0 -0.5625 -0.484375 -0.890625q-0.34375 -0.21875 -1.703125 -0.5625q-1.84375 -0.46875 -2.5625 -0.796875q-0.703125 -0.34375 -1.078125 -0.9375q-0.359375 -0.609375 -0.359375 -1.328125q0 -0.65625 0.296875 -1.21875q0.3125 -0.5625 0.828125 -0.9375q0.390625 -0.28125 1.0625 -0.484375q0.671875 -0.203125 1.4375 -0.203125q1.171875 0 2.046875 0.34375q0.875 0.328125 1.28125 0.90625q0.421875 0.5625 0.578125 1.515625l-1.625 0.21875q-0.109375 -0.75 -0.65625 -1.171875q-0.53125 -0.4375 -1.5 -0.4375q-1.15625 0 -1.640625 0.390625q-0.484375 0.375 -0.484375 0.875q0 0.328125 0.203125 0.59375q0.203125 0.265625 0.640625 0.4375q0.25 0.09375 1.46875 0.4375q1.765625 0.46875 2.46875 0.765625q0.703125 0.296875 1.09375 0.875q0.40625 0.578125 0.40625 1.4375q0 0.828125 -0.484375 1.578125q-0.484375 0.734375 -1.40625 1.140625q-0.921875 0.390625 -2.078125 0.390625q-1.921875 0 -2.9375 -0.796875q-1.0 -0.796875 -1.28125 -2.359375z" fill-rule="nonzero"></path><path fill="#cfe2f3" d="m154.89511 57.952755l56.45125 0l4.6562653 4.6562614l0 23.280746l0 0l-65.76378 0l0 0l0 -23.280746z" fill-rule="nonzero"></path><path stroke="#000000" stroke-width="1.0" stroke-linejoin="round" stroke-linecap="butt" d="m154.89511 57.952755l56.45125 0l4.6562653 4.6562614l0 23.280746l0 0l-65.76378 0l0 0l0 -23.280746z" fill-rule="nonzero"></path><path fill="#000000" d="m167.06747 77.88532l0 -9.3125l1.265625 0l4.890625 7.3125l0 -7.3125l1.1875 0l0 9.3125l-1.265625 0l-4.890625 -7.3125l0 7.3125l-1.1875 0zm9.281403 0.5625l1.125 0.15625q0.0625 0.515625 0.375 0.75q0.4375 0.328125 1.171875 0.328125q0.78125 0 1.21875 -0.328125q0.4375 -0.3125 0.578125 -0.890625q0.09375 -0.34375 0.09375 -1.453125q-0.75 0.875 -1.875 0.875q-1.390625 0 -2.15625 -1.0q-0.75 -1.0 -0.75 -2.40625q0 -0.96875 0.34375 -1.78125q0.359375 -0.8125 1.015625 -1.25q0.65625 -0.453125 1.5625 -0.453125q1.1875 0 1.96875 0.96875l0 -0.8125l1.046875 0l0 5.8125q0 1.578125 -0.328125 2.234375q-0.3125 0.65625 -1.015625 1.03125q-0.6875 0.390625 -1.703125 0.390625q-1.203125 0 -1.953125 -0.546875q-0.734375 -0.53125 -0.71875 -1.625zm0.953125 -4.046875q0 1.3125 0.515625 1.921875q0.53125 0.609375 1.328125 0.609375q0.796875 0 1.328125 -0.59375q0.53125 -0.609375 0.53125 -1.90625q0 -1.234375 -0.546875 -1.859375q-0.546875 -0.640625 -1.328125 -0.640625q-0.765625 0 -1.296875 0.625q-0.53125 0.625 -0.53125 1.84375zm6.6781006 -4.5l0 -1.328125l1.140625 0l0 1.328125l-1.140625 0zm0 7.984375l0 -6.734375l1.140625 0l0 6.734375l-1.140625 0zm2.96109 0l0 -6.734375l1.03125 0l0 0.953125q0.734375 -1.109375 2.140625 -1.109375q0.609375 0 1.109375 0.21875q0.515625 0.21875 0.765625 0.578125q0.265625 0.34375 0.359375 0.84375q0.0625 0.3125 0.0625 1.109375l0 4.140625l-1.140625 0l0 -4.09375q0 -0.703125 -0.140625 -1.046875q-0.125 -0.34375 -0.46875 -0.546875q-0.328125 -0.21875 -0.78125 -0.21875q-0.734375 0 -1.265625 0.46875q-0.53125 0.453125 -0.53125 1.75l0 3.6875l-1.140625 0zm6.6468506 0l2.46875 -3.5l-2.28125 -3.234375l1.421875 0l1.046875 1.578125q0.28125 0.453125 0.46875 0.75q0.265625 -0.421875 0.5 -0.734375l1.140625 -1.59375l1.375 0l-2.34375 3.171875l2.515625 3.5625l-1.40625 0l-1.375 -2.09375l-0.375 -0.5625l-1.765625 2.65625l-1.390625 0z" fill-rule="nonzero"></path><path fill="#cfe2f3" d="m70.979065 140.6063l227.38577 0c4.8828125E-4 0 9.765625E-4 2.1362305E-4 0.0013427734 5.645752E-4c3.6621094E-4 3.6621094E-4 5.79834E-4 8.544922E-4 5.79834E-4 0.0013580322l-0.0019226074 15.509827c0 1.7134247 -1.3890076 3.1024323 -3.1024475 3.1024323l-227.38574 0l0 0c-0.0010604858 0 -0.0019226074 -8.544922E-4 -0.0019226074 -0.0019226074l0.0019226074 -15.509827l0 0c0 -1.7134247 1.3889999 -3.1024323 3.1024246 -3.1024323z" fill-rule="nonzero"></path><path stroke="#000000" stroke-width="1.0" stroke-linejoin="round" stroke-linecap="butt" d="m70.979065 140.6063l227.38577 0c4.8828125E-4 0 9.765625E-4 2.1362305E-4 0.0013427734 5.645752E-4c3.6621094E-4 3.6621094E-4 5.79834E-4 8.544922E-4 5.79834E-4 0.0013580322l-0.0019226074 15.509827c0 1.7134247 -1.3890076 3.1024323 -3.1024475 3.1024323l-227.38574 0l0 0c-0.0010604858 0 -0.0019226074 -8.544922E-4 -0.0019226074 -0.0019226074l0.0019226074 -15.509827l0 0c0 -1.7134247 1.3889999 -3.1024323 3.1024246 -3.1024323z" fill-rule="nonzero"></path><path fill="#000000" d="m120.64544 154.71338l0 -6.734375l1.015625 0l0 0.9375q0.328125 -0.5 0.84375 -0.796875q0.53125 -0.296875 1.203125 -0.296875q0.75 0 1.21875 0.3125q0.484375 0.3125 0.6875 0.859375q0.796875 -1.171875 2.078125 -1.171875q1.0000076 0 1.5312576 0.5625q0.546875 0.546875 0.546875 1.703125l0 4.625l-1.125 0l0 -4.25q0 -0.6875 -0.109375 -0.984375q-0.109375 -0.296875 -0.40625 -0.484375q-0.29688263 -0.1875 -0.6875076 -0.1875q-0.71875 0 -1.1875 0.484375q-0.46875 0.46875 -0.46875 1.5l0 3.921875l-1.140625 0l0 -4.375q0 -0.765625 -0.28125 -1.140625q-0.28125 -0.390625 -0.90625 -0.390625q-0.484375 0 -0.890625 0.265625q-0.40625 0.25 -0.59375 0.734375q-0.1875 0.484375 -0.1875 1.40625l0 3.5l-1.140625 0zm15.711815 -2.171875l1.1875 0.140625q-0.28125 1.046875 -1.046875 1.625q-0.75 0.5625 -1.921875 0.5625q-1.484375 0 -2.359375 -0.90625q-0.859375 -0.921875 -0.859375 -2.5625q0 -1.703125 0.875 -2.640625q0.890625 -0.9375 2.28125 -0.9375q1.359375 0 2.203125 0.921875q0.859375 0.921875 0.859375 2.578125q0 0.109375 0 0.3125l-5.03125 0q0.0625 1.109375 0.625 1.703125q0.5625 0.59375 1.40625 0.59375q0.640625 0 1.078125 -0.328125q0.453125 -0.34375 0.703125 -1.0625zm-3.75 -1.84375l3.765625 0q-0.078125 -0.859375 -0.4375 -1.28125q-0.546875 -0.65625 -1.40625 -0.65625q-0.796875 0 -1.328125 0.53125q-0.53125 0.515625 -0.59375 1.40625zm6.0999756 2.0l1.125 -0.171875q0.09375 0.671875 0.53125 1.046875q0.4375 0.359375 1.21875 0.359375q0.78125 0 1.15625 -0.3125q0.390625 -0.328125 0.390625 -0.765625q0 -0.390625 -0.34375 -0.609375q-0.234375 -0.15625 -1.171875 -0.390625q-1.25 -0.3125 -1.734375 -0.546875q-0.484375 -0.234375 -0.734375 -0.640625q-0.25 -0.40625 -0.25 -0.90625q0 -0.453125 0.203125 -0.828125q0.203125 -0.390625 0.5625 -0.640625q0.265625 -0.203125 0.71875 -0.328125q0.46875 -0.140625 1.0 -0.140625q0.78125 0 1.375 0.234375q0.609375 0.21875 0.890625 0.609375q0.296875 0.390625 0.40625 1.046875l-1.125 0.15625q-0.078125 -0.53125 -0.4375 -0.8125q-0.359375 -0.296875 -1.03125 -0.296875q-0.78125 0 -1.125 0.265625q-0.34375 0.25 -0.34375 0.609375q0 0.21875 0.140625 0.390625q0.140625 0.1875 0.4375 0.3125q0.171875 0.0625 1.015625 0.28125q1.21875 0.328125 1.6875 0.53125q0.484375 0.203125 0.75 0.609375q0.28125 0.390625 0.28125 0.96875q0 0.578125 -0.34375 1.078125q-0.328125 0.5 -0.953125 0.78125q-0.625 0.28125 -1.421875 0.28125q-1.3125 0 -2.0 -0.546875q-0.6875 -0.546875 -0.875 -1.625zm6.6640625 0l1.125 -0.171875q0.09375 0.671875 0.53125 1.046875q0.4375 0.359375 1.21875 0.359375q0.78125 0 1.15625 -0.3125q0.390625 -0.328125 0.390625 -0.765625q0 -0.390625 -0.34375 -0.609375q-0.234375 -0.15625 -1.171875 -0.390625q-1.25 -0.3125 -1.734375 -0.546875q-0.484375 -0.234375 -0.734375 -0.640625q-0.25 -0.40625 -0.25 -0.90625q0 -0.453125 0.203125 -0.828125q0.203125 -0.390625 0.5625 -0.640625q0.265625 -0.203125 0.71875 -0.328125q0.46875 -0.140625 1.0 -0.140625q0.78125 0 1.375 0.234375q0.609375 0.21875 0.890625 0.609375q0.296875 0.390625 0.40625 1.046875l-1.125 0.15625q-0.078125 -0.53125 -0.4375 -0.8125q-0.359375 -0.296875 -1.03125 -0.296875q-0.78125 0 -1.125 0.265625q-0.34375 0.25 -0.34375 0.609375q0 0.21875 0.140625 0.390625q0.140625 0.1875 0.4375 0.3125q0.171875 0.0625 1.015625 0.28125q1.21875 0.328125 1.6875 0.53125q0.484375 0.203125 0.75 0.609375q0.28125 0.390625 0.28125 0.96875q0 0.578125 -0.34375 1.078125q-0.328125 0.5 -0.953125 0.78125q-0.625 0.28125 -1.421875 0.28125q-1.3125 0 -2.0 -0.546875q-0.6875 -0.546875 -0.875 -1.625zm11.5078125 1.1875q-0.625 0.53125 -1.21875 0.765625q-0.578125 0.21875 -1.25 0.21875q-1.125 0 -1.71875 -0.546875q-0.59375 -0.546875 -0.59375 -1.390625q0 -0.484375 0.21875 -0.890625q0.234375 -0.421875 0.59375 -0.671875q0.375 -0.25 0.828125 -0.375q0.328125 -0.078125 1.015625 -0.171875q1.375 -0.15625 2.03125 -0.390625q0.015625 -0.234375 0.015625 -0.296875q0 -0.703125 -0.328125 -0.984375q-0.4375 -0.390625 -1.296875 -0.390625q-0.8125 0 -1.203125 0.28125q-0.375 0.28125 -0.5625 1.0l-1.109375 -0.140625q0.140625 -0.71875 0.484375 -1.15625q0.359375 -0.453125 1.015625 -0.6875q0.671875 -0.234375 1.53125 -0.234375q0.875 0 1.40625 0.203125q0.546875 0.203125 0.796875 0.515625q0.25 0.296875 0.359375 0.765625q0.046875 0.296875 0.046875 1.0625l0 1.515625q0 1.59375 0.078125 2.015625q0.078125 0.421875 0.28125 0.8125l-1.1875 0q-0.171875 -0.359375 -0.234375 -0.828125zm-0.09375 -2.5625q-0.625 0.265625 -1.859375 0.4375q-0.703125 0.109375 -1.0 0.234375q-0.296875 0.125 -0.453125 0.375q-0.15625 0.234375 -0.15625 0.53125q0 0.453125 0.34375 0.765625q0.34375 0.296875 1.015625 0.296875q0.65625 0 1.171875 -0.28125q0.515625 -0.296875 0.765625 -0.796875q0.171875 -0.375 0.171875 -1.140625l0 -0.421875zm2.8968506 3.953125l1.125 0.15625q0.0625 0.515625 0.375 0.75q0.4375 0.328125 1.171875 0.328125q0.78125 0 1.21875 -0.328125q0.4375 -0.3125 0.578125 -0.890625q0.09375 -0.34375 0.09375 -1.453125q-0.75 0.875 -1.875 0.875q-1.390625 0 -2.15625 -1.0q-0.75 -1.0 -0.75 -2.40625q0 -0.96875 0.34375 -1.78125q0.359375 -0.8125 1.015625 -1.25q0.65625 -0.453125 1.5625 -0.453125q1.1875 0 1.96875 0.96875l0 -0.8125l1.046875 0l0 5.8125q0 1.578125 -0.328125 2.234375q-0.3125 0.65625 -1.015625 1.03125q-0.6875 0.390625 -1.703125 0.390625q-1.203125 0 -1.953125 -0.546875q-0.734375 -0.53125 -0.71875 -1.625zm0.953125 -4.046875q0 1.3125 0.515625 1.921875q0.53125 0.609375 1.328125 0.609375q0.796875 0 1.328125 -0.59375q0.53125 -0.609375 0.53125 -1.90625q0 -1.234375 -0.546875 -1.859375q-0.546875 -0.640625 -1.328125 -0.640625q-0.765625 0 -1.296875 0.625q-0.53125 0.625 -0.53125 1.84375zm11.287476 1.3125l1.1875 0.140625q-0.28125 1.046875 -1.046875 1.625q-0.75 0.5625 -1.921875 0.5625q-1.484375 0 -2.359375 -0.90625q-0.859375 -0.921875 -0.859375 -2.5625q0 -1.703125 0.875 -2.640625q0.890625 -0.9375 2.28125 -0.9375q1.359375 0 2.203125 0.921875q0.859375 0.921875 0.859375 2.578125q0 0.109375 0 0.3125l-5.03125 0q0.0625 1.109375 0.625 1.703125q0.5625 0.59375 1.40625 0.59375q0.640625 0 1.078125 -0.328125q0.453125 -0.34375 0.703125 -1.0625zm-3.75 -1.84375l3.765625 0q-0.078125 -0.859375 -0.4375 -1.28125q-0.546875 -0.65625 -1.40625 -0.65625q-0.796875 0 -1.328125 0.53125q-0.53125 0.515625 -0.59375 1.40625zm10.240463 4.015625l0 -6.734375l1.03125 0l0 1.015625q0.390625 -0.71875 0.71875 -0.9375q0.34375 -0.234375 0.734375 -0.234375q0.578125 0 1.171875 0.359375l-0.390625 1.0625q-0.421875 -0.25 -0.828125 -0.25q-0.375 0 -0.6875 0.234375q-0.296875 0.21875 -0.421875 0.625q-0.1875 0.609375 -0.1875 1.328125l0 3.53125l-1.140625 0zm4.0321198 -3.375q0 -1.875 1.03125 -2.765625q0.875 -0.75 2.125 -0.75q1.390625 0 2.265625 0.90625q0.890625 0.90625 0.890625 2.515625q0 1.296875 -0.390625 2.046875q-0.390625 0.75 -1.140625 1.171875q-0.75 0.40625 -1.625 0.40625q-1.421875 0 -2.296875 -0.90625q-0.859375 -0.90625 -0.859375 -2.625zm1.171875 0q0 1.296875 0.5625 1.953125q0.5625 0.640625 1.421875 0.640625q0.84375 0 1.40625 -0.640625q0.578125 -0.65625 0.578125 -1.984375q0 -1.25 -0.578125 -1.890625q-0.5625 -0.65625 -1.40625 -0.65625q-0.859375 0 -1.421875 0.640625q-0.5625 0.640625 -0.5625 1.9375zm11.084351 3.375l0 -0.984375q-0.796875 1.140625 -2.140625 1.140625q-0.59375 0 -1.125 -0.234375q-0.515625 -0.234375 -0.765625 -0.578125q-0.25 -0.34375 -0.34375 -0.84375q-0.078125 -0.328125 -0.078125 -1.0625l0 -4.171875l1.140625 0l0 3.734375q0 0.890625 0.078125 1.203125q0.109375 0.453125 0.453125 0.71875q0.34375 0.25 0.859375 0.25q0.515625 0 0.96875 -0.265625q0.453125 -0.265625 0.640625 -0.71875q0.1875 -0.453125 0.1875 -1.3125l0 -3.609375l1.140625 0l0 6.734375l-1.015625 0zm5.4905853 -1.015625l0.15625 1.0q-0.484375 0.109375 -0.859375 0.109375q-0.625 0 -0.96875 -0.203125q-0.34375 -0.203125 -0.484375 -0.515625q-0.140625 -0.328125 -0.140625 -1.34375l0 -3.890625l-0.828125 0l0 -0.875l0.828125 0l0 -1.671875l1.140625 -0.6875l0 2.359375l1.15625 0l0 0.875l-1.15625 0l0 3.953125q0 0.484375 0.0625 0.625q0.0625 0.140625 0.1875 0.21875q0.140625 0.078125 0.390625 0.078125q0.203125 0 0.515625 -0.03125zm5.812378 -1.15625l1.1875 0.140625q-0.28125 1.046875 -1.046875 1.625q-0.75 0.5625 -1.921875 0.5625q-1.484375 0 -2.359375 -0.90625q-0.859375 -0.921875 -0.859375 -2.5625q0 -1.703125 0.875 -2.640625q0.890625 -0.9375 2.28125 -0.9375q1.359375 0 2.203125 0.921875q0.859375 0.921875 0.859375 2.578125q0 0.109375 0 0.3125l-5.03125 0q0.0625 1.109375 0.625 1.703125q0.5625 0.59375 1.40625 0.59375q0.640625 0 1.078125 -0.328125q0.453125 -0.34375 0.703125 -1.0625zm-3.75 -1.84375l3.765625 0q-0.078125 -0.859375 -0.4375 -1.28125q-0.546875 -0.65625 -1.40625 -0.65625q-0.796875 0 -1.328125 0.53125q-0.53125 0.515625 -0.59375 1.40625zm6.5374756 4.015625l0 -6.734375l1.03125 0l0 1.015625q0.390625 -0.71875 0.71875 -0.9375q0.34375 -0.234375 0.734375 -0.234375q0.578125 0 1.171875 0.359375l-0.390625 1.0625q-0.421875 -0.25 -0.828125 -0.25q-0.375 0 -0.6875 0.234375q-0.296875 0.21875 -0.421875 0.625q-0.1875 0.609375 -0.1875 1.328125l0 3.53125l-1.140625 0zm10.344482 2.734375q-0.953125 -1.1875 -1.609375 -2.78125q-0.65625 -1.609375 -0.65625 -3.328125q0 -1.5 0.5 -2.890625q0.5625 -1.609375 1.765625 -3.203125l0.8125 0q-0.765625 1.328125 -1.015625 1.890625q-0.390625 0.875 -0.609375 1.828125q-0.265625 1.1875 -0.265625 2.390625q0 3.046875 1.890625 6.09375l-0.8125 0zm2.2508545 -2.734375l0 -6.734375l1.03125 0l0 0.953125q0.734375 -1.109375 2.140625 -1.109375q0.609375 0 1.109375 0.21875q0.515625 0.21875 0.765625 0.578125q0.265625 0.34375 0.359375 0.84375q0.0625 0.3125 0.0625 1.109375l0 4.140625l-1.140625 0l0 -4.09375q0 -0.703125 -0.140625 -1.046875q-0.125 -0.34375 -0.46875 -0.546875q-0.328125 -0.21875 -0.78125 -0.21875q-0.734375 0 -1.265625 0.46875q-0.53125 0.453125 -0.53125 1.75l0 3.6875l-1.140625 0zm6.9593506 -2.015625l1.125 -0.171875q0.09375 0.671875 0.53125 1.046875q0.4375 0.359375 1.21875 0.359375q0.78125 0 1.15625 -0.3125q0.390625 -0.328125 0.390625 -0.765625q0 -0.390625 -0.34375 -0.609375q-0.234375 -0.15625 -1.171875 -0.390625q-1.25 -0.3125 -1.734375 -0.546875q-0.484375 -0.234375 -0.734375 -0.640625q-0.25 -0.40625 -0.25 -0.90625q0 -0.453125 0.203125 -0.828125q0.203125 -0.390625 0.5625 -0.640625q0.265625 -0.203125 0.71875 -0.328125q0.46875 -0.140625 1.0 -0.140625q0.78125 0 1.375 0.234375q0.609375 0.21875 0.890625 0.609375q0.296875 0.390625 0.40625 1.046875l-1.125 0.15625q-0.078125 -0.53125 -0.4375 -0.8125q-0.359375 -0.296875 -1.03125 -0.296875q-0.78125 0 -1.125 0.265625q-0.34375 0.25 -0.34375 0.609375q0 0.21875 0.140625 0.390625q0.140625 0.1875 0.4375 0.3125q0.171875 0.0625 1.015625 0.28125q1.21875 0.328125 1.6875 0.53125q0.484375 0.203125 0.75 0.609375q0.28125 0.390625 0.28125 0.96875q0 0.578125 -0.34375 1.078125q-0.328125 0.5 -0.953125 0.78125q-0.625 0.28125 -1.421875 0.28125q-1.3125 0 -2.0 -0.546875q-0.6875 -0.546875 -0.875 -1.625zm11.4140625 4.59375l0 -3.296875q-0.265625 0.375 -0.75 0.625q-0.484375 0.25 -1.015625 0.25q-1.203125 0 -2.078125 -0.953125q-0.859375 -0.96875 -0.859375 -2.640625q0 -1.015625 0.34375 -1.8125q0.359375 -0.8125 1.03125 -1.21875q0.671875 -0.421875 1.46875 -0.421875q1.25 0 1.96875 1.046875l0 -0.890625l1.03125 0l0 9.3125l-1.140625 0zm-3.53125 -5.96875q0 1.296875 0.546875 1.953125q0.546875 0.65625 1.3125 0.65625q0.734375 0 1.25 -0.625q0.53125 -0.625 0.53125 -1.875q0 -1.359375 -0.5625 -2.03125q-0.546875 -0.6875 -1.296875 -0.6875q-0.734375 0 -1.265625 0.640625q-0.515625 0.625 -0.515625 1.96875zm7.3968506 6.125l-0.828125 0q1.90625 -3.046875 1.90625 -6.09375q0 -1.203125 -0.28125 -2.375q-0.203125 -0.953125 -0.59375 -1.828125q-0.25 -0.5625 -1.03125 -1.90625l0.828125 0q1.1875 1.59375 1.765625 3.203125q0.484375 1.390625 0.484375 2.890625q0 1.71875 -0.65625 3.328125q-0.65625 1.59375 -1.59375 2.78125z" fill-rule="nonzero"></path><path fill="#ffffff" d="m67.87664 172.80067l0 0c0 -4.2850037 3.4736786 -7.7586823 7.7586823 -7.7586823l214.97083 0c2.0577393 0 4.031189 0.8174286 5.4862366 2.2724762c1.4550171 1.4550323 2.272461 3.428482 2.272461 5.486206l0 31.033813c0 4.2850037 -3.4736938 7.7586823 -7.7586975 7.7586823l-214.97083 0l0 0c-4.2850037 0 -7.7586823 -3.4736786 -7.7586823 -7.7586823z" fill-rule="nonzero"></path><path stroke="#000000" stroke-width="1.0" stroke-linejoin="round" stroke-linecap="butt" d="m67.87664 172.80067l0 0c0 -4.2850037 3.4736786 -7.7586823 7.7586823 -7.7586823l214.97083 0c2.0577393 0 4.031189 0.8174286 5.4862366 2.2724762c1.4550171 1.4550323 2.272461 3.428482 2.272461 5.486206l0 31.033813c0 4.2850037 -3.4736938 7.7586823 -7.7586975 7.7586823l-214.97083 0l0 0c-4.2850037 0 -7.7586823 -3.4736786 -7.7586823 -7.7586823z" fill-rule="nonzero"></path><path fill="#000000" d="m108.992424 196.24074l0 -13.59375l9.171875 0l0 1.59375l-7.375 0l0 4.21875l6.375 0l0 1.609375l-6.375 0l0 6.171875l-1.796875 0zm11.099106 -11.6875l0 -1.90625l1.671875 0l0 1.90625l-1.671875 0zm0 11.6875l0 -9.859375l1.671875 0l0 9.859375l-1.671875 0zm4.129196 0l0 -9.859375l1.5 0l0 1.40625q1.09375 -1.625 3.1406326 -1.625q0.890625 0 1.640625 0.328125q0.75 0.3125 1.109375 0.84375q0.375 0.515625 0.53125 1.21875q0.09375 0.46875 0.09375 1.625l0 6.0625l-1.671875 0l0 -6.0q0 -1.015625 -0.203125 -1.515625q-0.1875 -0.515625 -0.6875 -0.8125q-0.5 -0.296875 -1.171875 -0.296875q-1.0625076 0 -1.8437576 0.671875q-0.765625 0.671875 -0.765625 2.578125l0 5.375l-1.671875 0zm16.813225 -1.21875q-0.9375 0.796875 -1.796875 1.125q-0.859375 0.3125 -1.84375 0.3125q-1.609375 0 -2.484375 -0.78125q-0.875 -0.796875 -0.875 -2.03125q0 -0.734375 0.328125 -1.328125q0.328125 -0.59375 0.859375 -0.953125q0.53125 -0.359375 1.203125 -0.546875q0.5 -0.140625 1.484375 -0.25q2.03125 -0.25 2.984375 -0.578125q0 -0.34375 0 -0.4375q0 -1.015625 -0.46875 -1.4375q-0.640625 -0.5625 -1.90625 -0.5625q-1.171875 0 -1.734375 0.40625q-0.5625 0.40625 -0.828125 1.46875l-1.640625 -0.234375q0.234375 -1.046875 0.734375 -1.6875q0.515625 -0.640625 1.46875 -0.984375q0.96875 -0.359375 2.25 -0.359375q1.265625 0 2.046875 0.296875q0.78125 0.296875 1.15625 0.75q0.375 0.453125 0.515625 1.140625q0.09375 0.421875 0.09375 1.53125l0 2.234375q0 2.328125 0.09375 2.953125q0.109375 0.609375 0.4375 1.171875l-1.75 0q-0.265625 -0.515625 -0.328125 -1.21875zm-0.140625 -3.71875q-0.90625 0.359375 -2.734375 0.625q-1.03125 0.140625 -1.453125 0.328125q-0.421875 0.1875 -0.65625 0.546875q-0.234375 0.359375 -0.234375 0.796875q0 0.671875 0.5 1.125q0.515625 0.4375 1.484375 0.4375q0.96875 0 1.71875 -0.421875q0.75 -0.4375 1.109375 -1.15625q0.265625 -0.578125 0.265625 -1.671875l0 -0.609375zm4.078842 4.9375l0 -9.859375l1.5 0l0 1.40625q1.09375 -1.625 3.140625 -1.625q0.890625 0 1.640625 0.328125q0.75 0.3125 1.109375 0.84375q0.375 0.515625 0.53125 1.21875q0.09375 0.46875 0.09375 1.625l0 6.0625l-1.671875 0l0 -6.0q0 -1.015625 -0.203125 -1.515625q-0.1875 -0.515625 -0.6875 -0.8125q-0.5 -0.296875 -1.171875 -0.296875q-1.0625 0 -1.84375 0.671875q-0.765625 0.671875 -0.765625 2.578125l0 5.375l-1.671875 0zm16.813217 -3.609375l1.640625 0.21875q-0.265625 1.6875 -1.375 2.65625q-1.109375 0.953125 -2.734375 0.953125q-2.015625 0 -3.25 -1.3125q-1.21875 -1.328125 -1.21875 -3.796875q0 -1.59375 0.515625 -2.78125q0.53125 -1.203125 1.609375 -1.796875q1.09375 -0.609375 2.359375 -0.609375q1.609375 0 2.625 0.8125q1.015625 0.8125 1.3125 2.3125l-1.625 0.25q-0.234375 -1.0 -0.828125 -1.5q-0.59375 -0.5 -1.421875 -0.5q-1.265625 0 -2.0625 0.90625q-0.78125 0.90625 -0.78125 2.859375q0 1.984375 0.765625 2.890625q0.765625 0.890625 1.984375 0.890625q0.984375 0 1.640625 -0.59375q0.65625 -0.609375 0.84375 -1.859375zm2.90625 -8.078125l0 -1.90625l1.671875 0l0 1.90625l-1.671875 0zm0 11.6875l0 -9.859375l1.671875 0l0 9.859375l-1.671875 0zm10.566696 -1.21875q-0.9375 0.796875 -1.796875 1.125q-0.859375 0.3125 -1.84375 0.3125q-1.609375 0 -2.484375 -0.78125q-0.875 -0.796875 -0.875 -2.03125q0 -0.734375 0.328125 -1.328125q0.328125 -0.59375 0.859375 -0.953125q0.53125 -0.359375 1.203125 -0.546875q0.5 -0.140625 1.484375 -0.25q2.03125 -0.25 2.984375 -0.578125q0 -0.34375 0 -0.4375q0 -1.015625 -0.46875 -1.4375q-0.640625 -0.5625 -1.90625 -0.5625q-1.171875 0 -1.734375 0.40625q-0.5625 0.40625 -0.828125 1.46875l-1.640625 -0.234375q0.234375 -1.046875 0.734375 -1.6875q0.515625 -0.640625 1.46875 -0.984375q0.96875 -0.359375 2.25 -0.359375q1.265625 0 2.046875 0.296875q0.78125 0.296875 1.15625 0.75q0.375 0.453125 0.515625 1.140625q0.09375 0.421875 0.09375 1.53125l0 2.234375q0 2.328125 0.09375 2.953125q0.109375 0.609375 0.4375 1.171875l-1.75 0q-0.265625 -0.515625 -0.328125 -1.21875zm-0.140625 -3.71875q-0.90625 0.359375 -2.734375 0.625q-1.03125 0.140625 -1.453125 0.328125q-0.421875 0.1875 -0.65625 0.546875q-0.234375 0.359375 -0.234375 0.796875q0 0.671875 0.5 1.125q0.515625 0.4375 1.484375 0.4375q0.96875 0 1.71875 -0.421875q0.75 -0.4375 1.109375 -1.15625q0.265625 -0.578125 0.265625 -1.671875l0 -0.609375zm4.047592 4.9375l0 -13.59375l1.671875 0l0 13.59375l-1.671875 0zm8.96875 -4.375l1.6875 -0.140625q0.125 1.015625 0.5625 1.671875q0.4375 0.65625 1.359375 1.0625q0.9375 0.40625 2.09375 0.40625q1.03125 0 1.8125 -0.3125q0.796875 -0.3125 1.1875 -0.84375q0.390625 -0.53125 0.390625 -1.15625q0 -0.640625 -0.375 -1.109375q-0.375 -0.484375 -1.234375 -0.8125q-0.546875 -0.21875 -2.421875 -0.65625q-1.875 -0.453125 -2.625 -0.859375q-0.96875 -0.515625 -1.453125 -1.265625q-0.46875 -0.75 -0.46875 -1.6875q0 -1.03125 0.578125 -1.921875q0.59375 -0.90625 1.703125 -1.359375q1.125 -0.46875 2.5 -0.46875q1.515625 0 2.671875 0.484375q1.15625 0.484375 1.765625 1.4375q0.62498474 0.9375 0.67185974 2.140625l-1.7187347 0.125q-0.140625 -1.28125 -0.953125 -1.9375q-0.796875 -0.671875 -2.359375 -0.671875q-1.625 0 -2.375 0.609375q-0.75 0.59375 -0.75 1.4375q0 0.734375 0.53125 1.203125q0.515625 0.46875 2.703125 0.96875q2.203125 0.5 3.015625 0.875q1.1875 0.546875 1.7499847 1.390625q0.578125 0.828125 0.578125 1.921875q0 1.09375 -0.625 2.0625q-0.62498474 0.953125 -1.7968597 1.484375q-1.15625 0.53125 -2.609375 0.53125q-1.84375 0 -3.09375 -0.53125q-1.25 -0.546875 -1.96875 -1.625q-0.703125 -1.078125 -0.734375 -2.453125zm19.584183 1.203125l1.71875 0.21875q-0.40625 1.5 -1.515625 2.34375q-1.09375 0.828125 -2.8125 0.828125q-2.15625 0 -3.421875 -1.328125q-1.265625 -1.328125 -1.265625 -3.734375q0 -2.484375 1.265625 -3.859375q1.28125 -1.375 3.328125 -1.375q1.984375 0 3.234375 1.34375q1.25 1.34375 1.25 3.796875q0 0.140625 -0.015625 0.4375l-7.34375 0q0.09375 1.625 0.921875 2.484375q0.828125 0.859375 2.0625 0.859375q0.90625 0 1.546875 -0.46875q0.65625 -0.484375 1.046875 -1.546875zm-5.484375 -2.703125l5.5 0q-0.109375 -1.234375 -0.625 -1.859375q-0.796875 -0.96875 -2.078125 -0.96875q-1.140625 0 -1.9375 0.78125q-0.78125 0.765625 -0.859375 2.046875zm9.094482 5.875l0 -9.859375l1.5 0l0 1.5q0.578125 -1.046875 1.0625 -1.375q0.484375 -0.34375 1.078125 -0.34375q0.84375 0 1.71875 0.546875l-0.578125 1.546875q-0.609375 -0.359375 -1.234375 -0.359375q-0.546875 0 -0.984375 0.328125q-0.421875 0.328125 -0.609375 0.90625q-0.28125 0.890625 -0.28125 1.953125l0 5.15625l-1.671875 0zm8.962677 0l-3.75 -9.859375l1.765625 0l2.125 5.90625q0.34375 0.953125 0.625 1.984375q0.21875 -0.78125 0.625 -1.875l2.1875 -6.015625l1.71875 0l-3.734375 9.859375l-1.5625 0zm6.609375 -11.6875l0 -1.90625l1.671875 0l0 1.90625l-1.671875 0zm0 11.6875l0 -9.859375l1.671875 0l0 9.859375l-1.671875 0zm10.566681 -3.609375l1.640625 0.21875q-0.265625 1.6875 -1.375 2.65625q-1.109375 0.953125 -2.734375 0.953125q-2.015625 0 -3.25 -1.3125q-1.21875 -1.328125 -1.21875 -3.796875q0 -1.59375 0.515625 -2.78125q0.53125 -1.203125 1.609375 -1.796875q1.09375 -0.609375 2.359375 -0.609375q1.609375 0 2.625 0.8125q1.015625 0.8125 1.3125 2.3125l-1.625 0.25q-0.234375 -1.0 -0.828125 -1.5q-0.59375 -0.5 -1.421875 -0.5q-1.265625 0 -2.0625 0.90625q-0.78125 0.90625 -0.78125 2.859375q0 1.984375 0.765625 2.890625q0.765625 0.890625 1.984375 0.890625q0.984375 0 1.640625 -0.59375q0.65625 -0.609375 0.84375 -1.859375zm9.640625 0.4375l1.71875 0.21875q-0.40625 1.5 -1.515625 2.34375q-1.09375 0.828125 -2.8125 0.828125q-2.15625 0 -3.421875 -1.328125q-1.265625 -1.328125 -1.265625 -3.734375q0 -2.484375 1.265625 -3.859375q1.28125 -1.375 3.328125 -1.375q1.984375 0 3.234375 1.34375q1.25 1.34375 1.25 3.796875q0 0.140625 -0.015625 0.4375l-7.34375 0q0.09375 1.625 0.921875 2.484375q0.828125 0.859375 2.0625 0.859375q0.90625 0 1.546875 -0.46875q0.65625 -0.484375 1.046875 -1.546875zm-5.484375 -2.703125l5.5 0q-0.109375 -1.234375 -0.625 -1.859375q-0.796875 -0.96875 -2.078125 -0.96875q-1.140625 0 -1.9375 0.78125q-0.78125 0.765625 -0.859375 2.046875zm8.438232 2.9375l1.65625 -0.265625q0.140625 1.0 0.765625 1.53125q0.640625 0.515625 1.78125 0.515625q1.15625 0 1.703125 -0.46875q0.5625 -0.46875 0.5625 -1.09375q0 -0.5625 -0.484375 -0.890625q-0.34375 -0.21875 -1.703125 -0.5625q-1.84375 -0.46875 -2.5625 -0.796875q-0.703125 -0.34375 -1.078125 -0.9375q-0.359375 -0.609375 -0.359375 -1.328125q0 -0.65625 0.296875 -1.21875q0.3125 -0.5625 0.828125 -0.9375q0.390625 -0.28125 1.0625 -0.484375q0.671875 -0.203125 1.4375 -0.203125q1.171875 0 2.046875 0.34375q0.875 0.328125 1.28125 0.90625q0.421875 0.5625 0.578125 1.515625l-1.625 0.21875q-0.109375 -0.75 -0.65625 -1.171875q-0.53125 -0.4375 -1.5 -0.4375q-1.15625 0 -1.640625 0.390625q-0.484375 0.375 -0.484375 0.875q0 0.328125 0.203125 0.59375q0.203125 0.265625 0.640625 0.4375q0.25 0.09375 1.46875 0.4375q1.765625 0.46875 2.46875 0.765625q0.703125 0.296875 1.09375 0.875q0.40625 0.578125 0.40625 1.4375q0 0.828125 -0.484375 1.578125q-0.484375 0.734375 -1.40625 1.140625q-0.921875 0.390625 -2.078125 0.390625q-1.921875 0 -2.9375 -0.796875q-1.0 -0.796875 -1.28125 -2.359375z" fill-rule="nonzero"></path><path fill="#cfe2f3" d="m2.0997376 211.59317l0 -155.37007l58.803146 0l0 155.37007z" fill-rule="nonzero"></path><path stroke="#000000" stroke-width="1.0" stroke-linejoin="round" stroke-linecap="butt" d="m2.0997376 211.59317l0 -155.37007l58.803146 0l0 155.37007z" fill-rule="nonzero"></path><path fill="#000000" d="m36.581314 195.98853l-9.468752 0l0 3.53125l-1.265625 0l0 -8.5l1.265625 0l0 3.546875l9.468752 0l0 1.421875zm0 -6.0463715l-10.734377 0l0 -1.328125l3.84375 0q-1.0625 -0.921875 -1.0625 -2.328125q0 -0.859375 0.34375 -1.5q0.34375 -0.640625 0.9375 -0.90625q0.59375 -0.28125 1.75 -0.28125l4.921877 0l0 1.328125l-4.921877 0q-1.0 0 -1.4375 0.421875q-0.453125 0.421875 -0.453125 1.21875q0 0.578125 0.296875 1.09375q0.296875 0.515625 0.828125 0.734375q0.515625 0.21875 1.4375019 0.21875l4.25 0l0 1.328125zm-9.218752 -8.166733l-1.515625 0l0 -1.3125l1.515625 0l0 1.3125zm9.218752 0l-7.781252 0l0 -1.3125l7.781252 0l0 1.3125zm0 -3.2248993l-7.781252 0l0 -1.1875l1.1875 0q-0.828125 -0.453125 -1.09375 -0.84375q-0.265625 -0.390625 -0.265625 -0.84375q0 -0.671875 0.421875 -1.359375l1.21875 0.453125q-0.28125 0.484375 -0.28125 0.96875q0 0.4375 0.265625 0.78125q0.25 0.34375 0.71875 0.484375q0.703125 0.21875 1.5312519 0.21875l4.078125 0l0 1.328125zm0 -9.943146l-0.984375 0q1.15625 0.734375 1.15625 2.171875q0 0.921875 -0.5 1.703125q-0.515625 0.78125 -1.4375 1.21875q-0.921875 0.421875 -2.109375 0.421875q-1.1718769 0 -2.109377 -0.390625q-0.953125 -0.390625 -1.453125 -1.15625q-0.515625 -0.78125 -0.515625 -1.734375q0 -0.703125 0.296875 -1.25q0.296875 -0.5625 0.765625 -0.90625l-3.84375 0l0 -1.3125l10.734377 0l0 1.234375zm-3.875 4.15625q1.484375 0 2.234375 -0.625q0.734375 -0.625 0.734375 -1.484375q0 -0.859375 -0.703125 -1.46875q-0.71875 -0.609375 -2.15625 -0.609375q-1.6093769 0 -2.343752 0.625q-0.75 0.609375 -0.75 1.515625q0 0.875 0.71875 1.46875q0.71875 0.578125 2.265627 0.578125zm3.875 -11.5043335l-10.734377 0l0 -4.046875q0 -1.078125 0.09375 -1.640625q0.140625 -0.78125 0.515625 -1.3125q0.359375 -0.546875 1.03125 -0.875q0.65625 -0.328125 1.46875 -0.328125q1.359375 0 2.3125 0.875q0.9531269 0.875 0.9531269 3.15625l0 2.75l4.359375 0l0 1.421875zm-5.625002 -1.421875l0 -2.78125q0 -1.375 -0.515625 -1.953125q-0.515625 -0.578125 -1.453125 -0.578125q-0.671875 0 -1.140625 0.34375q-0.484375 0.34375 -0.640625 0.890625q-0.09375 0.359375 -0.09375 1.328125l0 2.75l3.84375 0zm4.671877 -13.259979q0.609375 0.734375 0.875 1.40625q0.25 0.671875 0.25 1.453125q0 1.28125 -0.625 1.96875q-0.625 0.6875 -1.59375 0.6875q-0.578125 0 -1.046875 -0.25q-0.46875 -0.265625 -0.75 -0.6875q-0.296875 -0.421875 -0.4375 -0.953125q-0.109375 -0.375 -0.203125 -1.171875q-0.1875019 -1.59375 -0.4531269 -2.34375q-0.265625 -0.015625 -0.34375 -0.015625q-0.8125 0 -1.140625 0.375q-0.4375 0.515625 -0.4375 1.5q0 0.9375 0.328125 1.390625q0.3125 0.4375 1.140625 0.640625l-0.171875 1.296875q-0.828125 -0.171875 -1.328125 -0.578125q-0.515625 -0.40625 -0.78125 -1.171875q-0.28125 -0.765625 -0.28125 -1.765625q0 -1.0 0.234375 -1.609375q0.234375 -0.625 0.59375 -0.921875q0.34375 -0.296875 0.890625 -0.40625q0.34375 -0.0625 1.21875 -0.0625l1.7500019 0q1.84375 0 2.328125 -0.078125q0.484375 -0.09375 0.9375 -0.34375l0 1.375q-0.40625 0.203125 -0.953125 0.265625zm-2.953125 0.109375q0.296875 0.71875 0.5 2.15625q0.125 0.8125 0.265625 1.15625q0.140625 0.328125 0.421875 0.515625q0.28125 0.171875 0.625 0.171875q0.53125 0 0.890625 -0.390625q0.34375 -0.40625 0.34375 -1.171875q0 -0.765625 -0.328125 -1.359375q-0.34375 -0.59375 -0.921875 -0.875q-0.4375 -0.203125 -1.3125 -0.203125l-0.484375 0zm3.90625 -3.1667328l-7.781252 0l0 -1.1875l1.1875 0q-0.828125 -0.453125 -1.09375 -0.84375q-0.265625 -0.390625 -0.265625 -0.84375q0 -0.671875 0.421875 -1.359375l1.21875 0.453125q-0.28125 0.484375 -0.28125 0.96875q0 0.4375 0.265625 0.78125q0.25 0.34375 0.71875 0.484375q0.703125 0.21875 1.5312519 0.21875l4.078125 0l0 1.328125zm-1.171875 -7.7868958l1.15625 -0.1875q0.125 0.5625 0.125 1.0q0 0.71875 -0.234375 1.125q-0.234375 0.390625 -0.59375 0.546875q-0.375 0.15625 -1.5625 0.15625l-4.468752 0l0 0.96875l-1.03125 0l0 -0.96875l-1.921875 0l-0.796875 -1.3125l2.71875 0l0 -1.328125l1.03125 0l0 1.328125l4.546877 0q0.5625 0 0.734375 -0.0625q0.15625 -0.078125 0.25 -0.234375q0.09375 -0.15625 0.09375 -0.4375q0 -0.234375 -0.046875 -0.59375zm4.171875 -1.1344757l-1.234375 0.15625q0.109375 -0.4375 0.109375 -0.75q0 -0.453125 -0.15625 -0.703125q-0.140625 -0.265625 -0.40625 -0.4375q-0.1875 -0.125 -0.96875 -0.40625q-0.109375 -0.03125 -0.328125 -0.109375l-7.796877 2.953125l0 -1.421875l4.500002 -1.625q0.859375 -0.3125 1.8125 -0.5625q-0.90625 -0.234375 -1.78125 -0.546875l-4.531252 -1.65625l0 -1.328125l7.906252 2.96875q1.28125 0.46875 1.765625 0.734375q0.65625 0.359375 0.953125 0.8125q0.3125 0.453125 0.3125 1.078125q0 0.375 -0.15625 0.84375zm-6.453125 -11.134468l-0.109375 -1.34375q0.796875 -0.09375 1.3125 -0.4375q0.515625 -0.359375 0.84375 -1.078125q0.3125 -0.734375 0.3125 -1.65625q0 -0.8125 -0.234375 -1.4375q-0.25 -0.625 -0.671875 -0.921875q-0.421875 -0.3125 -0.921875 -0.3125q-0.5 0 -0.875 0.296875q-0.375 0.296875 -0.640625 0.96875q-0.1562519 0.4375 -0.5156269 1.921875q-0.359375 1.46875 -0.671875 2.0625q-0.40625 0.765625 -1.0 1.15625q-0.59375 0.375 -1.34375 0.375q-0.8125 0 -1.515625 -0.453125q-0.703125 -0.46875 -1.0625 -1.359375q-0.375 -0.890625 -0.375 -1.96875q0 -1.203125 0.390625 -2.109375q0.375 -0.90625 1.125 -1.390625q0.75 -0.5 1.6875 -0.546875l0.109375 1.375q-1.015625 0.109375 -1.53125 0.75q-0.53125 0.625 -0.53125 1.859375q0 1.28125 0.484375 1.875q0.46875 0.59375 1.125 0.59375q0.578125 0 0.953125 -0.421875q0.375 -0.40625 0.765625 -2.140625q0.390625 -1.734375 0.6875 -2.375q0.4375 -0.9375 1.1093769 -1.375q0.65625 -0.453125 1.515625 -0.453125q0.859375 0 1.625 0.5q0.75 0.484375 1.171875 1.40625q0.421875 0.90625 0.421875 2.0625q0 1.453125 -0.421875 2.4375q-0.4375 0.984375 -1.28125 1.546875q-0.859375 0.5625 -1.9375 0.59375zm0.953125 -15.416229l0.15625 -1.359375q1.203125 0.3125 1.859375 1.1875q0.65625 0.875 0.65625 2.234375q0 1.703125 -1.046875 2.703125q-1.046875 1.0 -2.953125 1.0q-1.9531269 0 -3.031252 -1.015625q-1.09375 -1.015625 -1.09375 -2.625q0 -1.5625 1.0625 -2.546875q1.0625 -0.984375 2.984377 -0.984375q0.125 0 0.359375 0l0 5.8125q1.28125 -0.078125 1.96875 -0.71875q0.671875 -0.65625 0.671875 -1.640625q0 -0.71875 -0.375 -1.234375q-0.390625 -0.515625 -1.21875 -0.8125zm-2.140627 4.328125l0 -4.34375q-0.984375 0.09375 -1.46875 0.5q-0.765625 0.625 -0.765625 1.625q0 0.921875 0.609375 1.546875q0.609375 0.609375 1.625 0.671875zm4.640627 -7.135483l-7.781252 0l0 -1.1875l1.1875 0q-0.828125 -0.453125 -1.09375 -0.84375q-0.265625 -0.390625 -0.265625 -0.84375q0 -0.671875 0.421875 -1.359375l1.21875 0.453125q-0.28125 0.484375 -0.28125 0.96875q0 0.4375 0.265625 0.78125q0.25 0.34375 0.71875 0.484375q0.703125 0.21875 1.5312519 0.21875l4.078125 0l0 1.328125zm0 -7.0681458l-7.781252 2.96875l0 -1.390625l4.656252 -1.671875q0.765625 -0.265625 1.578125 -0.5q-0.625 -0.171875 -1.484375 -0.484375l-4.750002 -1.734375l0 -1.359375l7.781252 2.953125l0 1.21875zm-9.218752 -5.171875l-1.515625 0l0 -1.3125l1.515625 0l0 1.3125zm9.218752 0l-7.781252 0l0 -1.3125l7.781252 0l0 1.3125zm-2.84375 -8.318649l0.15625 -1.296875q1.34375 0.203125 2.109375 1.09375q0.75 0.875 0.75 2.140625q0 1.59375 -1.03125 2.5625q-1.046875 0.96875 -3.0 0.96875q-1.2656269 0 -2.203127 -0.40625q-0.953125 -0.421875 -1.421875 -1.265625q-0.46875 -0.859375 -0.46875 -1.859375q0 -1.265625 0.640625 -2.078125q0.640625 -0.8125 1.8125 -1.03125l0.203125 1.28125q-0.78125 0.1875 -1.171875 0.65625q-0.40625 0.453125 -0.40625 1.109375q0 1.0 0.71875 1.625q0.71875 0.625 2.265627 0.625q1.5625 0 2.28125 -0.59375q0.703125 -0.609375 0.703125 -1.578125q0 -0.78125 -0.46875 -1.296875q-0.484375 -0.515625 -1.46875 -0.65625zm0.34375 -7.578125l0.15625 -1.359375q1.203125 0.3125 1.859375 1.1875q0.65625 0.875 0.65625 2.234375q0 1.703125 -1.046875 2.703125q-1.046875 1.0 -2.953125 1.0q-1.9531269 0 -3.031252 -1.015625q-1.09375 -1.015625 -1.09375 -2.625q0 -1.5625 1.0625 -2.546875q1.0625 -0.984375 2.984377 -0.984375q0.125 0 0.359375 0l0 5.8125q1.28125 -0.078125 1.96875 -0.71875q0.671875 -0.65625 0.671875 -1.640625q0 -0.71875 -0.375 -1.234375q-0.390625 -0.515625 -1.21875 -0.8125zm-2.140627 4.328125l0 -4.34375q-0.984375 0.09375 -1.46875 0.5q-0.765625 0.625 -0.765625 1.625q0 0.921875 0.609375 1.546875q0.609375 0.609375 1.625 0.671875zm2.312502 -6.635483l-0.203125 -1.296875q0.78125 -0.109375 1.203125 -0.609375q0.421875 -0.5 0.421875 -1.40625q0 -0.90625 -0.359375 -1.34375q-0.375 -0.4375 -0.875 -0.4375q-0.453125 0 -0.703125 0.390625q-0.1875 0.265625 -0.453125 1.34375q-0.359375 1.453125 -0.625 2.015625q-0.28125 0.546875 -0.7500019 0.84375q-0.46875 0.28125 -1.046875 0.28125q-0.515625 0 -0.953125 -0.234375q-0.453125 -0.234375 -0.734375 -0.640625q-0.234375 -0.3125 -0.390625 -0.84375q-0.15625 -0.53125 -0.15625 -1.140625q0 -0.90625 0.265625 -1.59375q0.265625 -0.703125 0.71875 -1.03125q0.4375 -0.328125 1.203125 -0.453125l0.171875 1.28125q-0.609375 0.09375 -0.9375 0.515625q-0.34375 0.421875 -0.34375 1.1875q0 0.90625 0.3125 1.296875q0.296875 0.390625 0.703125 0.390625q0.25 0 0.453125 -0.15625q0.21875 -0.171875 0.359375 -0.515625q0.0625 -0.1875 0.328125 -1.15625q0.3750019 -1.40625 0.6093769 -1.953125q0.234375 -0.5625 0.703125 -0.875q0.453125 -0.3125 1.125 -0.3125q0.65625 0 1.234375 0.390625q0.578125 0.375 0.90625 1.109375q0.3125 0.71875 0.3125 1.640625q0 1.515625 -0.625 2.3125q-0.625 0.78125 -1.875 1.0z" fill-rule="nonzero"></path><path fill="#cfe2f3" d="m305.3386 213.32283l0 -155.37007l58.80313 0l0 155.37007z" fill-rule="nonzero"></path><path stroke="#000000" stroke-width="1.0" stroke-linejoin="round" stroke-linecap="butt" d="m305.3386 213.32283l0 -155.37007l58.80313 0l0 155.37007z" fill-rule="nonzero"></path><path fill="#000000" d="m339.82016 172.76814l-10.734375 0l0 -4.046875q0 -1.078125 0.09375 -1.640625q0.140625 -0.78125 0.515625 -1.3125q0.359375 -0.546875 1.03125 -0.875q0.65625 -0.328125 1.46875 -0.328125q1.359375 0 2.3125 0.875q0.953125 0.875 0.953125 3.15625l0 2.75l4.359375 0l0 1.421875zm-5.625 -1.421875l0 -2.78125q0 -1.375 -0.515625 -1.953125q-0.515625 -0.578125 -1.453125 -0.578125q-0.671875 0 -1.140625 0.34375q-0.484375 0.34375 -0.640625 0.890625q-0.09375 0.359375 -0.09375 1.328125l0 2.75l3.84375 0zm3.125 -13.509979l0.15625 -1.359375q1.203125 0.3125 1.859375 1.1875q0.65625 0.875 0.65625 2.234375q0 1.703125 -1.046875 2.703125q-1.046875 1.0 -2.953125 1.0q-1.953125 0 -3.03125 -1.015625q-1.09375 -1.015625 -1.09375 -2.625q0 -1.5625 1.0625 -2.546875q1.0625 -0.984375 2.984375 -0.984375q0.125 0 0.359375 0l0 5.8125q1.28125 -0.078125 1.96875 -0.71875q0.671875 -0.65625 0.671875 -1.640625q0 -0.71875 -0.375 -1.234375q-0.390625 -0.515625 -1.21875 -0.8125zm-2.140625 4.328125l0 -4.34375q-0.984375 0.09375 -1.46875 0.5q-0.765625 0.625 -0.765625 1.625q0 0.921875 0.609375 1.546875q0.609375 0.609375 1.625 0.671875zm4.640625 -7.135483l-7.78125 0l0 -1.1875l1.1875 0q-0.828125 -0.453125 -1.09375 -0.84375q-0.265625 -0.390625 -0.265625 -0.84375q0 -0.671875 0.421875 -1.359375l1.21875 0.453125q-0.28125 0.484375 -0.28125 0.96875q0 0.4375 0.265625 0.78125q0.25 0.34375 0.71875 0.484375q0.703125 0.21875 1.53125 0.21875l4.078125 0l0 1.328125zm-2.328125 -4.3806458l-0.203125 -1.296875q0.78125 -0.109375 1.203125 -0.609375q0.421875 -0.5 0.421875 -1.40625q0 -0.90625 -0.359375 -1.34375q-0.375 -0.4375 -0.875 -0.4375q-0.453125 0 -0.703125 0.390625q-0.1875 0.265625 -0.453125 1.34375q-0.359375 1.453125 -0.625 2.015625q-0.28125 0.546875 -0.75 0.84375q-0.46875 0.28125 -1.046875 0.28125q-0.515625 0 -0.953125 -0.234375q-0.453125 -0.234375 -0.734375 -0.640625q-0.234375 -0.3125 -0.390625 -0.84375q-0.15625 -0.53125 -0.15625 -1.140625q0 -0.90625 0.265625 -1.59375q0.265625 -0.703125 0.71875 -1.03125q0.4375 -0.328125 1.203125 -0.453125l0.171875 1.28125q-0.609375 0.09375 -0.9375 0.515625q-0.34375 0.421875 -0.34375 1.1875q0 0.90625 0.3125 1.296875q0.296875 0.390625 0.703125 0.390625q0.25 0 0.453125 -0.15625q0.21875 -0.171875 0.359375 -0.515625q0.0625 -0.1875 0.328125 -1.15625q0.375 -1.40625 0.609375 -1.953125q0.234375 -0.5625 0.703125 -0.875q0.453125 -0.3125 1.125 -0.3125q0.65625 0 1.234375 0.390625q0.578125 0.375 0.90625 1.109375q0.3125 0.71875 0.3125 1.640625q0 1.515625 -0.625 2.3125q-0.625 0.78125 -1.875 1.0zm-6.890625 -7.859375l-1.515625 0l0 -1.3125l1.515625 0l0 1.3125zm9.21875 0l-7.78125 0l0 -1.3125l7.78125 0l0 1.3125zm-2.328125 -2.7248993l-0.203125 -1.296875q0.78125 -0.109375 1.203125 -0.609375q0.421875 -0.5 0.421875 -1.40625q0 -0.90625 -0.359375 -1.34375q-0.375 -0.4375 -0.875 -0.4375q-0.453125 0 -0.703125 0.390625q-0.1875 0.265625 -0.453125 1.34375q-0.359375 1.453125 -0.625 2.015625q-0.28125 0.546875 -0.75 0.84375q-0.46875 0.28125 -1.046875 0.28125q-0.515625 0 -0.953125 -0.234375q-0.453125 -0.234375 -0.734375 -0.640625q-0.234375 -0.3125 -0.390625 -0.84375q-0.15625 -0.53125 -0.15625 -1.140625q0 -0.90625 0.265625 -1.59375q0.265625 -0.703125 0.71875 -1.03125q0.4375 -0.328125 1.203125 -0.453125l0.171875 1.28125q-0.609375 0.09375 -0.9375 0.515625q-0.34375 0.421875 -0.34375 1.1875q0 0.90625 0.3125 1.296875q0.296875 0.390625 0.703125 0.390625q0.25 0 0.453125 -0.15625q0.21875 -0.171875 0.359375 -0.515625q0.0625 -0.1875 0.328125 -1.15625q0.375 -1.40625 0.609375 -1.953125q0.234375 -0.5625 0.703125 -0.875q0.453125 -0.3125 1.125 -0.3125q0.65625 0 1.234375 0.390625q0.578125 0.375 0.90625 1.109375q0.3125 0.71875 0.3125 1.640625q0 1.515625 -0.625 2.3125q-0.625 0.78125 -1.875 1.0zm1.15625 -10.734375l1.15625 -0.1875q0.125 0.5625 0.125 1.0q0 0.71875 -0.234375 1.125q-0.234375 0.390625 -0.59375 0.546875q-0.375 0.15625 -1.5625 0.15625l-4.46875 0l0 0.96875l-1.03125 0l0 -0.96875l-1.921875 0l-0.796875 -1.3125l2.71875 0l0 -1.328125l1.03125 0l0 1.328125l4.546875 0q0.5625 0 0.734375 -0.0625q0.15625 -0.078125 0.25 -0.234375q0.09375 -0.15625 0.09375 -0.4375q0 -0.234375 -0.046875 -0.59375zm-1.328125 -6.5094757l0.15625 -1.359375q1.203125 0.3125 1.859375 1.1875q0.65625 0.875 0.65625 2.234375q0 1.703125 -1.046875 2.703125q-1.046875 1.0 -2.953125 1.0q-1.953125 0 -3.03125 -1.015625q-1.09375 -1.015625 -1.09375 -2.625q0 -1.5625 1.0625 -2.546875q1.0625 -0.984375 2.984375 -0.984375q0.125 0 0.359375 0l0 5.8125q1.28125 -0.078125 1.96875 -0.71875q0.671875 -0.65625 0.671875 -1.640625q0 -0.71875 -0.375 -1.234375q-0.390625 -0.515625 -1.21875 -0.8125zm-2.140625 4.328125l0 -4.34375q-0.984375 0.09375 -1.46875 0.5q-0.765625 0.625 -0.765625 1.625q0 0.921875 0.609375 1.546875q0.609375 0.609375 1.625 0.671875zm4.640625 -7.151108l-7.78125 0l0 -1.1875l1.109375 0q-1.28125 -0.859375 -1.28125 -2.484375q0 -0.703125 0.25 -1.28125q0.25 -0.59375 0.671875 -0.890625q0.40625 -0.296875 0.96875 -0.40625q0.359375 -0.078125 1.28125 -0.078125l4.78125 0l0 1.328125l-4.734375 0q-0.796875 0 -1.1875 0.15625q-0.40625 0.140625 -0.640625 0.53125q-0.25 0.390625 -0.25 0.921875q0 0.84375 0.53125 1.453125q0.53125 0.609375 2.03125 0.609375l4.25 0l0 1.328125zm-2.84375 -13.229233l0.15625 -1.296875q1.34375 0.203125 2.109375 1.09375q0.75 0.875 0.75 2.140625q0 1.59375 -1.03125 2.5625q-1.046875 0.96875 -3.0 0.96875q-1.265625 0 -2.203125 -0.40625q-0.953125 -0.421875 -1.421875 -1.265625q-0.46875 -0.859375 -0.46875 -1.859375q0 -1.265625 0.640625 -2.078125q0.640625 -0.8125 1.8125 -1.03125l0.203125 1.28125q-0.78125 0.1875 -1.171875 0.65625q-0.40625 0.453125 -0.40625 1.109375q0 1.0 0.71875 1.625q0.71875 0.625 2.265625 0.625q1.5625 0 2.28125 -0.59375q0.703125 -0.609375 0.703125 -1.578125q0 -0.78125 -0.46875 -1.296875q-0.484375 -0.515625 -1.46875 -0.65625zm0.34375 -7.578125l0.15625 -1.359375q1.203125 0.3125 1.859375 1.1875q0.65625 0.875 0.65625 2.234375q0 1.703125 -1.046875 2.703125q-1.046875 1.0 -2.953125 1.0q-1.953125 0 -3.03125 -1.015625q-1.09375 -1.015625 -1.09375 -2.625q0 -1.5625 1.0625 -2.546875q1.0625 -0.984375 2.984375 -0.984375q0.125 0 0.359375 0l0 5.8125q1.28125 -0.078125 1.96875 -0.71875q0.671875 -0.65625 0.671875 -1.640625q0 -0.71875 -0.375 -1.234375q-0.390625 -0.515625 -1.21875 -0.8125zm-2.140625 4.328125l0 -4.34375q-0.984375 0.09375 -1.46875 0.5q-0.765625 0.625 -0.765625 1.625q0 0.921875 0.609375 1.546875q0.609375 0.609375 1.625 0.671875z" fill-rule="nonzero"></path></g></svg>

